<svg width="180" height="187" viewBox="0 0 180 187" fill="none" xmlns="http://www.w3.org/2000/svg">
<circle cx="90" cy="90.1074" r="90" fill="#D68209"/>
<g filter="url(#filter0_d_325_2594)">
<circle cx="90" cy="90.1074" r="81.25" stroke="#300201" stroke-width="1.5" stroke-dasharray="6 6" shape-rendering="crispEdges"/>
</g>
<path d="M140.301 114.949L154.595 123.775L148.846 133.087L146.62 131.713L150.667 125.158L146.848 122.8L143.595 128.068L141.431 126.732L144.684 121.463L138.598 117.706L140.301 114.949Z" fill="black"/>
<path d="M120.659 136.752C122.008 135.778 123.411 135.22 124.866 135.078C126.322 134.935 127.721 135.179 129.063 135.808C130.402 136.46 131.572 137.481 132.573 138.869C133.575 140.258 134.169 141.683 134.357 143.146C134.54 144.631 134.335 146.042 133.741 147.379C133.146 148.715 132.174 149.87 130.825 150.844C129.475 151.817 128.073 152.375 126.617 152.518C125.148 152.67 123.745 152.42 122.406 151.768C121.064 151.138 119.892 150.129 118.89 148.74C117.889 147.352 117.296 145.915 117.112 144.43C116.925 142.967 117.135 141.563 117.743 140.217C118.337 138.88 119.309 137.725 120.659 136.752ZM122.358 139.107C121.514 139.715 120.917 140.432 120.565 141.258C120.223 142.097 120.136 142.988 120.305 143.932C120.46 144.886 120.884 145.842 121.576 146.803C122.278 147.776 123.053 148.48 123.899 148.915C124.742 149.372 125.611 149.564 126.505 149.491C127.399 149.418 128.268 149.077 129.112 148.469C129.955 147.861 130.552 147.143 130.904 146.318C131.255 145.492 131.353 144.603 131.198 143.649C131.039 142.718 130.609 141.766 129.907 140.793C129.214 139.833 128.446 139.124 127.603 138.667C126.748 138.219 125.868 138.025 124.964 138.085C124.07 138.158 123.201 138.498 122.358 139.107Z" fill="black"/>
<path d="M109.463 143.227L113.33 159.576L110.177 160.322L106.89 146.426L99.7196 148.121L99.1396 145.669L109.463 143.227Z" fill="black"/>
<path d="M88.906 146.852L86.2221 163.436L83.0237 162.919L85.305 148.822L78.0317 147.645L78.4342 145.157L88.906 146.852Z" fill="black"/>
<path d="M59.6947 136.993C61.1106 137.867 62.1629 138.95 62.8518 140.24C63.5406 141.53 63.8509 142.916 63.7827 144.397C63.6924 145.883 63.1976 147.355 62.2982 148.811C61.3988 150.268 60.3091 151.363 59.0292 152.096C57.7273 152.834 56.3453 153.184 54.8831 153.146C53.4209 153.108 51.9819 152.652 50.566 151.778C49.1502 150.904 48.0978 149.822 47.409 148.531C46.7065 147.233 46.4004 145.84 46.4907 144.354C46.5589 142.873 47.0427 141.404 47.9422 139.947C48.8416 138.491 49.9422 137.393 51.2441 136.655C52.524 135.922 53.9019 135.579 55.3777 135.625C56.8398 135.663 58.2789 136.119 59.6947 136.993ZM58.1691 139.464C57.2842 138.918 56.3931 138.64 55.4958 138.632C54.5902 138.636 53.7334 138.897 52.9255 139.414C52.1041 139.922 51.3823 140.68 50.7603 141.687C50.1298 142.708 49.7756 143.693 49.6977 144.642C49.5978 145.595 49.7527 146.471 50.1624 147.27C50.5721 148.068 51.2194 148.74 52.1043 149.287C52.9892 149.833 53.8803 150.111 54.7775 150.119C55.6748 150.128 56.5341 149.878 57.3556 149.37C58.1551 148.867 58.8701 148.105 59.5005 147.084C60.1225 146.076 60.4835 145.096 60.5835 144.142C60.6698 143.18 60.5123 142.293 60.111 141.481C59.7013 140.683 59.054 140.01 58.1691 139.464Z" fill="black"/>
<path d="M47.0104 126.099L35.9695 139.51L33.9475 136.707L42.881 126.652L30.2124 131.53L28.1202 128.63L36.801 118.224L24.4273 123.511L22.3913 120.689L38.6697 114.538L40.9304 117.672L32.8855 127.441L44.7637 122.985L47.0104 126.099Z" fill="black"/>
<path d="M35 98.7865H18.2L18.2 87.8425H20.816V95.5465H25.304V89.3545H27.848L27.848 95.5465H35V98.7865Z" fill="black"/>
<path d="M37.0379 76.4961L24.557 63.6929L26.1502 60.3846L43.9523 62.1382L42.4632 65.2304L28.6784 63.6532L38.5062 73.4472L37.0379 76.4961ZM34.7765 72.397L32.8705 70.5468L36.588 62.8273L39.2229 63.1638L34.7765 72.397Z" fill="black"/>
<path d="M56.2637 50.0777C54.9377 51.1351 53.5749 51.7614 52.1753 51.9567C50.7657 52.1394 49.4004 51.9287 48.0795 51.3244C46.7486 50.7077 45.5495 49.7301 44.482 48.3916C43.4146 47.0531 42.7283 45.6664 42.4232 44.2317C42.1181 42.7969 42.2114 41.4127 42.7032 40.0791C43.195 38.7455 44.1039 37.55 45.4299 36.4926C47.0311 35.2157 48.6526 34.5672 50.2943 34.5473C51.936 34.5273 53.4556 35.1369 54.853 36.3759L52.076 38.5905C51.3547 38.0197 50.583 37.7449 49.7609 37.7661C48.9287 37.7748 48.0874 38.1184 47.2367 38.7967C46.4487 39.4252 45.9165 40.1565 45.6404 40.9907C45.3668 41.8024 45.3492 42.6657 45.5877 43.5806C45.8162 44.483 46.3045 45.4033 47.0527 46.3415C47.7909 47.2672 48.5795 47.9481 49.4184 48.3842C50.2573 48.8203 51.1029 48.9952 51.9551 48.9091C52.8198 48.813 53.6462 48.4507 54.4343 47.8222C55.2849 47.1438 55.8221 46.4188 56.0456 45.647C56.2592 44.8627 56.183 44.0742 55.8169 43.2815L58.594 41.0669C59.4311 42.6299 59.6524 44.2032 59.2576 45.7869C58.8629 47.3705 57.8649 48.8008 56.2637 50.0777Z" fill="black"/>
<path d="M72.8935 40.4858L69.1552 24.107L79.9418 21.645L80.5239 24.1954L72.8961 25.9364L73.8734 30.2183L80.7993 28.6375L81.36 31.0943L74.4341 32.6751L75.4702 37.2144L83.098 35.4734L83.6801 38.0238L72.8935 40.4858Z" fill="black"/>
<path d="M96.6178 37.8635L100.356 21.4847L107.071 23.0174C108.21 23.2773 109.129 23.6757 109.827 24.2125C110.525 24.7493 110.996 25.3819 111.24 26.1105C111.503 26.827 111.54 27.5987 111.351 28.4254C111.163 29.2521 110.825 29.9053 110.338 30.385C109.851 30.8647 109.276 31.1929 108.612 31.3695C107.967 31.5342 107.296 31.5616 106.599 31.4517L107.009 31.2745C107.75 31.4765 108.367 31.8306 108.859 32.3368C109.369 32.8308 109.719 33.4194 109.908 34.1025C110.112 34.7892 110.133 35.4913 109.969 36.2089C109.769 37.0824 109.383 37.8065 108.808 38.3811C108.25 38.9593 107.52 39.3508 106.62 39.5556C105.739 39.7484 104.721 39.7131 103.567 39.4496L96.6178 37.8635ZM100.364 36.0107L103.64 36.7583C104.498 36.9542 105.205 36.9105 105.762 36.6273C106.319 36.3442 106.681 35.836 106.849 35.1029C107.016 34.3697 106.904 33.7452 106.513 33.2292C106.126 32.6977 105.503 32.334 104.645 32.1382L101.416 31.4012L100.364 36.0107ZM101.956 29.038L104.997 29.7322C105.824 29.9209 106.498 29.8779 107.021 29.6033C107.543 29.3286 107.882 28.8481 108.039 28.1617C108.192 27.491 108.093 26.9186 107.742 26.4445C107.394 25.9548 106.799 25.6139 105.957 25.4216L102.938 24.7327L101.956 29.038Z" fill="black"/>
<path d="M124.536 49.9187C123.235 48.8812 122.32 47.6807 121.791 46.3172C121.261 44.9536 121.119 43.5408 121.364 42.0786C121.632 40.6139 122.3 39.2123 123.367 37.8738C124.434 36.5353 125.647 35.5789 127.006 35.0046C128.387 34.4278 129.801 34.2457 131.248 34.4583C132.695 34.671 134.069 35.2961 135.37 36.3336C136.671 37.3711 137.586 38.5716 138.115 39.9351C138.657 41.3086 138.794 42.7277 138.527 44.1924C138.282 45.6545 137.625 47.0549 136.558 48.3934C135.491 49.7319 134.266 50.6895 132.885 51.2664C131.527 51.8407 130.118 52.0165 128.658 51.7939C127.211 51.5812 125.837 50.9562 124.536 49.9187ZM126.347 47.6482C127.16 48.2967 128.011 48.6789 128.901 48.795C129.801 48.8985 130.683 48.7423 131.547 48.3261C132.423 47.92 133.23 47.2541 133.969 46.3284C134.717 45.3902 135.186 44.4549 135.377 43.5226C135.591 42.5877 135.542 41.6994 135.231 40.8578C134.92 40.0162 134.358 39.2712 133.544 38.6228C132.731 37.9743 131.88 37.5921 130.99 37.476C130.1 37.36 129.217 37.505 128.341 37.9111C127.487 38.3148 126.686 38.9857 125.938 39.9239C125.199 40.8496 124.724 41.7798 124.51 42.7147C124.309 43.6596 124.359 44.5591 124.66 45.4132C124.972 46.2548 125.534 46.9998 126.347 47.6482Z" fill="black"/>
<path d="M140.03 68.9916C139.308 67.4924 139.004 66.0137 139.119 64.5555C139.234 63.0974 139.719 61.7628 140.574 60.5518C141.451 59.3482 142.66 58.3751 144.203 57.6323C145.745 56.8894 147.253 56.554 148.726 56.626C150.22 56.7054 151.573 57.1549 152.785 57.9744C153.996 58.7939 154.963 59.9532 155.685 61.4524C156.407 62.9516 156.711 64.4303 156.596 65.8885C156.488 67.3611 155.996 68.6991 155.12 69.9027C154.264 71.1137 153.065 72.0906 151.523 72.8334C149.981 73.5762 148.462 73.9079 146.968 73.8285C145.495 73.7565 144.149 73.3035 142.93 72.4696C141.719 71.6502 140.752 70.4908 140.03 68.9916ZM142.646 67.7316C143.098 68.6686 143.699 69.3824 144.45 69.873C145.216 70.3567 146.078 70.5985 147.037 70.5985C148.003 70.6128 149.019 70.3631 150.086 69.8494C151.167 69.3287 151.996 68.6898 152.573 67.9327C153.171 67.183 153.512 66.3615 153.597 65.4683C153.682 64.575 153.498 63.6599 153.047 62.7228C152.596 61.7858 151.995 61.072 151.243 60.5814C150.492 60.0908 149.634 59.8383 148.668 59.824C147.723 59.8171 146.71 60.074 145.629 60.5946C144.562 61.1084 143.73 61.7401 143.132 62.4897C142.541 63.2538 142.196 64.086 142.097 64.9862C142.012 65.8795 142.195 66.7946 142.646 67.7316Z" fill="black"/>
<path d="M146 87.0025H162.8V90.2425H156.152L162.8 96.3145V100.323L156.152 94.1305L146 100.491V96.5305L153.632 91.8265L151.952 90.2425H146V87.0025Z" fill="black"/>
<path d="M95.1384 111.062C95.1449 111 95.1483 110.937 95.1483 110.873V95.748H100.318C101.147 95.748 101.893 95.2021 102.014 94.3821C102.214 93.0255 102.129 91.7919 102 90.9147C101.881 90.1094 101.163 89.5793 100.349 89.5793H95.1483C95.1483 84.9181 95.9239 84.2398 100.296 84.155C101.134 84.1387 101.887 83.5848 102.009 82.7546C102.214 81.3591 102.132 80.1398 102.004 79.282C101.885 78.4897 101.175 77.9732 100.374 77.9802C92.6472 78.0476 88.2465 78.9613 88.2465 89.5793H84.2437C83.4657 89.5793 82.7751 90.067 82.6574 90.836C82.5306 91.6647 82.454 92.8657 82.6656 94.3266C82.7879 95.1706 83.5468 95.748 84.3995 95.748H88.2465V111.107C82.2639 111.068 77.9817 110.832 75.1933 110.605C72.1247 110.356 69.757 107.988 69.5076 104.919C69.2595 101.865 69 97.0192 69 90.1103C69 83.2014 69.2595 78.3555 69.5076 75.3016C69.757 72.2325 72.1247 69.8645 75.1933 69.6151C78.2468 69.367 83.092 69.1074 90 69.1074C96.908 69.1074 101.753 69.367 104.807 69.6151C107.875 69.8645 110.243 72.2325 110.492 75.3016C110.74 78.3555 111 83.2014 111 90.1103C111 97.0192 110.74 101.865 110.492 104.919C110.243 107.988 107.875 110.356 104.807 110.605C102.576 110.787 99.3881 110.974 95.1384 111.062Z" fill="#300201"/>
<defs>
<filter id="filter0_d_325_2594" x="4" y="8.10742" width="172" height="172" filterUnits="userSpaceOnUse" color-interpolation-filters="sRGB">
<feFlood flood-opacity="0" result="BackgroundImageFix"/>
<feColorMatrix in="SourceAlpha" type="matrix" values="0 0 0 0 0 0 0 0 0 0 0 0 0 0 0 0 0 0 127 0" result="hardAlpha"/>
<feOffset dy="4"/>
<feGaussianBlur stdDeviation="2"/>
<feComposite in2="hardAlpha" operator="out"/>
<feColorMatrix type="matrix" values="0 0 0 0 0 0 0 0 0 0 0 0 0 0 0 0 0 0 0.25 0"/>
<feBlend mode="normal" in2="BackgroundImageFix" result="effect1_dropShadow_325_2594"/>
<feBlend mode="normal" in="SourceGraphic" in2="effect1_dropShadow_325_2594" result="shape"/>
</filter>
</defs>
</svg>
