<svg width="180" height="187" viewBox="0 0 180 187" fill="none" xmlns="http://www.w3.org/2000/svg">
<circle cx="90" cy="90.1074" r="90" fill="#D68209"/>
<g filter="url(#filter0_d_325_2573)">
<circle cx="90" cy="90.1074" r="81.25" stroke="#300201" stroke-width="1.5" stroke-dasharray="6 6" shape-rendering="crispEdges"/>
</g>
<path d="M35.4998 91.9994H18.6998V88.7594H35.4998V91.9994Z" fill="black"/>
<path d="M36.8956 75.697L21.3745 69.2678L22.6144 66.2745L36.2592 63.5617L25.5718 59.1347L26.8117 56.1414L42.3328 62.5706L41.0929 65.5639L27.4703 68.2859L38.1355 72.7036L36.8956 75.697Z" fill="black"/>
<path d="M51.8826 51.1426C51.0227 52.0024 50.1063 52.6247 49.1333 53.0094C48.1717 53.3827 47.2157 53.4789 46.2653 53.2979C45.315 53.1168 44.4268 52.636 43.6009 51.8554L46.0277 49.4286C46.3898 49.768 46.7971 49.9943 47.2496 50.1074C47.7022 50.2205 48.166 50.2092 48.6412 50.0735C49.1051 49.9264 49.5463 49.6435 49.9649 49.2249C50.3156 48.8742 50.5645 48.5122 50.7116 48.1388C50.8587 47.7428 50.8983 47.3638 50.8304 47.0018C50.7738 46.6284 50.5985 46.2947 50.3043 46.0005C49.9536 45.6498 49.5746 45.4518 49.1673 45.4066C48.76 45.3387 48.3357 45.3783 47.8945 45.5253C47.442 45.6611 46.9611 45.8591 46.452 46.1193C45.9429 46.3569 45.4111 46.6171 44.8568 46.9C43.6236 47.4996 42.5148 47.7937 41.5305 47.7824C40.5349 47.7598 39.6185 47.3299 38.7813 46.4927C38.0685 45.7799 37.6273 44.9993 37.4576 44.1507C37.2879 43.3022 37.3728 42.4367 37.7122 41.5542C38.0516 40.6718 38.6116 39.8402 39.3923 39.0596C40.1955 38.2563 41.0441 37.6906 41.9378 37.3625C42.8203 37.0231 43.6971 36.9382 44.5683 37.1079C45.4394 37.2776 46.237 37.7019 46.9611 38.3807L44.5004 40.8415C44.2289 40.5926 43.9121 40.4229 43.55 40.3323C43.1767 40.2305 42.7977 40.2362 42.413 40.3493C42.017 40.4511 41.6437 40.6774 41.293 41.0281C40.9875 41.311 40.7669 41.6221 40.6311 41.9615C40.4953 42.3009 40.4557 42.646 40.5123 42.9967C40.5689 43.3248 40.7442 43.636 41.0384 43.9301C41.3212 44.2129 41.6267 44.3827 41.9548 44.4392C42.2829 44.4958 42.6449 44.4732 43.0409 44.3713C43.4256 44.2582 43.8499 44.0942 44.3137 43.8792C44.7663 43.6529 45.2528 43.404 45.7732 43.1325C46.5765 42.7365 47.3628 42.4367 48.1321 42.2331C48.9014 42.0068 49.6538 41.9672 50.3892 42.1143C51.1246 42.2613 51.8543 42.6969 52.5784 43.421C53.2006 44.0433 53.6136 44.7843 53.8172 45.6441C54.0322 46.4927 53.9926 47.3921 53.6984 48.3425C53.4043 49.2928 52.799 50.2262 51.8826 51.1426Z" fill="black"/>
<path d="M67.9539 39.5808L62.5259 26.4765L57.9804 28.3593L56.9793 25.9424L69.0415 20.9461L70.0426 23.3629L65.4971 25.2458L70.9251 38.3501L67.9539 39.5808Z" fill="black"/>
<path d="M83.0278 34.6074L89.1478 17.8074H92.8198L98.9638 34.6074H95.5318L90.9718 21.5034L86.4118 34.6074H83.0278ZM85.7398 30.7914L86.5798 28.2714H95.1478L95.9878 30.7914H85.7398Z" fill="black"/>
<path d="M111.645 38.8976C110.181 38.2914 109.037 37.4366 108.213 36.3331C107.394 35.2148 106.927 33.9388 106.811 32.5052C106.701 31.0568 106.973 29.5418 107.628 27.9601C108.29 26.3636 109.182 25.0879 110.305 24.133C111.434 23.1632 112.726 22.5728 114.182 22.3618C115.637 22.1507 117.178 22.382 118.804 23.0555C120.622 23.8086 121.949 24.8693 122.786 26.2374C123.636 27.6116 123.918 29.1482 123.63 30.8473L120.281 29.4604C120.341 28.6886 120.148 27.985 119.701 27.3496C119.275 26.7056 118.589 26.1877 117.643 25.7958C116.638 25.3794 115.689 25.246 114.795 25.3956C113.902 25.5451 113.105 25.9425 112.405 26.5877C111.705 27.2328 111.125 28.1097 110.666 29.2184C110.201 30.3418 109.991 31.3718 110.036 32.3083C110.081 33.2448 110.358 34.0609 110.866 34.7564C111.395 35.4433 112.126 35.9797 113.057 36.3654C114.417 36.9287 115.594 36.9921 116.589 36.5556C117.605 36.1104 118.421 35.3314 119.038 34.2187L115.224 32.639L116.152 30.3995L122.981 33.2283L119.427 41.8093L116.655 40.6613L117.251 38.596C116.723 38.9491 116.168 39.2038 115.583 39.3601C115.02 39.5078 114.416 39.5435 113.773 39.4673C113.123 39.4059 112.413 39.216 111.645 38.8976Z" fill="black"/>
<path d="M125.725 46.3439L137.604 34.4645L142.051 38.9108C143.001 39.8612 143.623 40.8115 143.918 41.7619C144.223 42.7235 144.251 43.6343 144.002 44.4941C143.765 45.3427 143.312 46.1007 142.645 46.7682C142.011 47.4017 141.264 47.843 140.405 48.0919C139.567 48.3408 138.662 48.3182 137.689 48.024C136.739 47.7299 135.772 47.0906 134.787 46.1063L132.666 43.985L128.016 48.635L125.725 46.3439ZM131.885 52.5042L134.669 44.8335L137.146 47.3112L134.499 55.1177L131.885 52.5042ZM134.329 42.3219L136.332 44.3244C137.033 45.0259 137.718 45.3709 138.385 45.3596C139.053 45.3483 139.664 45.0655 140.218 44.5111C140.772 43.9567 141.044 43.3571 141.033 42.7122C141.033 42.056 140.682 41.3772 139.98 40.6758L137.978 38.6732L134.329 42.3219Z" fill="black"/>
<path d="M139.224 61.5024L157.088 60.7274L158.493 64.1199L145.323 76.2253L144.009 73.0546L154.371 63.8269L140.519 64.6288L139.224 61.5024ZM143.788 62.5476L146.437 62.3593L149.716 70.2751L147.709 72.0155L143.788 62.5476Z" fill="black"/>
<path d="M146.5 80.7154H163.3V84.5794L152.836 89.8114L163.3 94.9714V98.8354H146.5V95.5954H157.804L148.9 91.0594V88.4914L157.828 83.9554H146.5V80.7154Z" fill="black"/>
<path fill-rule="evenodd" clip-rule="evenodd" d="M78 69.1074C73.0294 69.1074 69 73.1368 69 78.1074V102.107C69 107.078 73.0294 111.107 78 111.107H102C106.97 111.107 111 107.078 111 102.107V78.1074C111 73.1368 106.97 69.1074 102 69.1074H78ZM104.591 78.1204C104.591 79.5522 103.43 80.7128 101.998 80.7128C100.567 80.7128 99.4059 79.5522 99.4059 78.1204C99.4059 76.6887 100.567 75.5281 101.998 75.5281C103.43 75.5281 104.591 76.6887 104.591 78.1204ZM90.0004 82.9174C86.0296 82.9174 82.8106 86.1364 82.8106 90.1072C82.8106 94.0779 86.0296 97.2969 90.0004 97.2969C93.9712 97.2969 97.1901 94.0779 97.1901 90.1072C97.1901 86.1364 93.9712 82.9174 90.0004 82.9174ZM79.3541 90.1072C79.3541 84.2274 84.1206 79.4609 90.0004 79.4609C95.8802 79.4609 100.647 84.2274 100.647 90.1072C100.647 95.9869 95.8802 100.753 90.0004 100.753C84.1206 100.753 79.3541 95.9869 79.3541 90.1072Z" fill="#300201"/>
<path d="M140.301 114.949L154.595 123.775L148.846 133.087L146.62 131.713L150.667 125.158L146.848 122.8L143.595 128.068L141.431 126.732L144.684 121.463L138.598 117.706L140.301 114.949Z" fill="black"/>
<path d="M120.659 136.752C122.008 135.778 123.411 135.22 124.866 135.078C126.322 134.935 127.721 135.179 129.063 135.808C130.402 136.46 131.572 137.481 132.573 138.869C133.575 140.258 134.169 141.683 134.357 143.146C134.54 144.631 134.335 146.042 133.741 147.379C133.146 148.715 132.174 149.87 130.825 150.844C129.475 151.817 128.073 152.375 126.617 152.518C125.148 152.67 123.745 152.42 122.406 151.768C121.064 151.138 119.892 150.129 118.89 148.74C117.889 147.352 117.296 145.915 117.112 144.43C116.925 142.967 117.135 141.563 117.743 140.217C118.337 138.88 119.309 137.725 120.659 136.752ZM122.358 139.107C121.514 139.715 120.917 140.432 120.565 141.258C120.223 142.097 120.136 142.988 120.305 143.932C120.46 144.886 120.884 145.842 121.576 146.803C122.278 147.776 123.053 148.48 123.899 148.915C124.742 149.372 125.611 149.564 126.505 149.491C127.399 149.418 128.268 149.077 129.112 148.469C129.955 147.861 130.552 147.143 130.904 146.318C131.255 145.492 131.353 144.603 131.198 143.649C131.039 142.718 130.609 141.766 129.907 140.793C129.214 139.833 128.446 139.124 127.603 138.667C126.748 138.219 125.868 138.025 124.964 138.085C124.07 138.158 123.201 138.498 122.358 139.107Z" fill="black"/>
<path d="M109.463 143.227L113.33 159.576L110.177 160.322L106.89 146.426L99.7196 148.121L99.1396 145.669L109.463 143.227Z" fill="black"/>
<path d="M88.906 146.852L86.2221 163.436L83.0237 162.919L85.305 148.822L78.0317 147.645L78.4342 145.157L88.906 146.852Z" fill="black"/>
<path d="M59.6947 136.993C61.1106 137.867 62.1629 138.95 62.8518 140.24C63.5406 141.53 63.8509 142.916 63.7827 144.397C63.6924 145.883 63.1976 147.355 62.2982 148.811C61.3988 150.268 60.3091 151.363 59.0292 152.096C57.7273 152.834 56.3453 153.184 54.8831 153.146C53.4209 153.108 51.9819 152.652 50.566 151.778C49.1502 150.904 48.0978 149.822 47.409 148.531C46.7065 147.233 46.4004 145.84 46.4907 144.354C46.5589 142.873 47.0427 141.404 47.9422 139.947C48.8416 138.491 49.9422 137.393 51.2441 136.655C52.524 135.922 53.9019 135.579 55.3777 135.625C56.8398 135.663 58.2789 136.119 59.6947 136.993ZM58.1691 139.464C57.2842 138.918 56.3931 138.64 55.4958 138.632C54.5902 138.636 53.7334 138.897 52.9255 139.414C52.1041 139.922 51.3823 140.68 50.7603 141.687C50.1298 142.708 49.7756 143.693 49.6977 144.642C49.5978 145.595 49.7527 146.471 50.1624 147.27C50.5721 148.068 51.2194 148.74 52.1043 149.287C52.9892 149.833 53.8803 150.111 54.7775 150.119C55.6748 150.128 56.5341 149.878 57.3556 149.37C58.1551 148.867 58.8701 148.105 59.5005 147.084C60.1225 146.076 60.4835 145.096 60.5835 144.142C60.6698 143.18 60.5123 142.293 60.111 141.481C59.7013 140.683 59.054 140.01 58.1691 139.464Z" fill="black"/>
<path d="M47.0104 126.099L35.9695 139.51L33.9475 136.707L42.881 126.652L30.2124 131.53L28.1202 128.63L36.801 118.224L24.4273 123.511L22.3913 120.689L38.6697 114.538L40.9304 117.672L32.8855 127.441L44.7637 122.985L47.0104 126.099Z" fill="black"/>
<defs>
<filter id="filter0_d_325_2573" x="4" y="8.10742" width="172" height="172" filterUnits="userSpaceOnUse" color-interpolation-filters="sRGB">
<feFlood flood-opacity="0" result="BackgroundImageFix"/>
<feColorMatrix in="SourceAlpha" type="matrix" values="0 0 0 0 0 0 0 0 0 0 0 0 0 0 0 0 0 0 127 0" result="hardAlpha"/>
<feOffset dy="4"/>
<feGaussianBlur stdDeviation="2"/>
<feComposite in2="hardAlpha" operator="out"/>
<feColorMatrix type="matrix" values="0 0 0 0 0 0 0 0 0 0 0 0 0 0 0 0 0 0 0.25 0"/>
<feBlend mode="normal" in2="BackgroundImageFix" result="effect1_dropShadow_325_2573"/>
<feBlend mode="normal" in="SourceGraphic" in2="effect1_dropShadow_325_2573" result="shape"/>
</filter>
</defs>
</svg>
